<?xml version="1.0" standalone="no"?><!DOCTYPE svg PUBLIC "-//W3C//DTD SVG 1.1//EN" "http://www.w3.org/Graphics/SVG/1.1/DTD/svg11.dtd"><svg t="1598011500202" class="icon" viewBox="0 0 1024 1024" version="1.1" xmlns="http://www.w3.org/2000/svg" p-id="2181" xmlns:xlink="http://www.w3.org/1999/xlink" width="200" height="200"><defs><style type="text/css"></style></defs><path d="M973.944466 559.561225 336.779791 559.561225l0 0c-26.405393 0-47.786353-21.313422-47.786353-47.562249 0-26.290783 21.383006-47.561225 47.786353-47.561225 0.022513 0 0.022513 0 0.022513 0L973.942419 464.437751c26.41051 0 47.789423 21.267373 47.789423 47.561225C1021.732865 538.247804 1000.352929 559.561225 973.944466 559.561225zM973.944466 305.915341 336.779791 305.915341l0 0c-26.405393 0-47.786353-21.314445-47.786353-47.562249 0-26.291806 21.383006-47.561225 47.786353-47.561225 0.022513 0 0.022513 0 0.022513 0L973.942419 210.791867c26.41051 0 47.789423 21.268396 47.789423 47.561225C1021.732865 284.600897 1000.352929 305.915341 973.944466 305.915341zM145.63131 813.208133 145.63131 813.208133 50.055534 813.208133c-26.406416 0-47.787376-21.315468-47.787376-47.562249 0-26.291806 21.383006-47.562249 47.787376-47.562249l95.55224 0 0.022513 0c26.405393 0 47.786353 21.269419 47.786353 47.562249C193.418686 791.891641 172.03568 813.208133 145.63131 813.208133zM145.63131 559.561225 145.63131 559.561225 50.055534 559.561225c-26.406416 0-47.787376-21.313422-47.787376-47.562249 0-26.290783 21.383006-47.561225 47.787376-47.561225l95.55224 0c0 0 0 0 0.022513 0 26.405393 0 47.786353 21.267373 47.786353 47.561225C193.418686 538.247804 172.03568 559.561225 145.63131 559.561225zM145.63131 305.915341 145.63131 305.915341 50.055534 305.915341c-26.406416 0-47.787376-21.314445-47.787376-47.562249 0-26.291806 21.383006-47.561225 47.787376-47.561225l95.55224 0c0 0 0 0 0.022513 0 26.405393 0 47.786353 21.268396 47.786353 47.561225C193.418686 284.600897 172.03568 305.915341 145.63131 305.915341zM336.779791 813.208133c-26.405393 0-47.786353-21.315468-47.786353-47.562249 0-26.291806 21.383006-47.562249 47.786353-47.562249l0.022513 0L973.942419 718.083635c26.41051 0 47.789423 21.269419 47.789423 47.562249 0 26.245757-21.381983 47.562249-47.789423 47.562249L336.779791 813.208133 336.779791 813.208133z" p-id="2182"></path></svg>